<?xml version="1.0" standalone="no"?>
<!DOCTYPE svg PUBLIC "-//W3C//DTD SVG 20010904//EN"
 "http://www.w3.org/TR/2001/REC-SVG-20010904/DTD/svg10.dtd">
<svg version="1.0" xmlns="http://www.w3.org/2000/svg"
 width="400.000000pt" height="400.000000pt" viewBox="0 0 400.000000 400.000000"
 preserveAspectRatio="xMidYMid meet">
<metadata>
Created by potrace 1.14, written by Peter Selinger 2001-2017
</metadata>
<g transform="translate(0.000000,400.000000) scale(0.100000,-0.100000)"
fill="#000000" stroke="none">
<path d="M1877 3439 c-386 -32 -747 -204 -1018 -486 -487 -507 -562 -1285
-182 -1878 25 -38 61 -90 81 -114 33 -40 34 -43 11 -36 -70 23 -142 92 -208
202 l-37 63 -213 -129 c-118 -71 -218 -134 -224 -140 -7 -7 3 -32 31 -79 92
-154 197 -253 347 -328 128 -63 222 -85 388 -91 161 -6 251 5 385 49 l94 31
51 -21 c365 -151 753 -167 1128 -46 106 34 107 34 165 19 208 -53 496 -46 694
16 139 43 228 97 326 194 103 102 152 185 185 312 27 102 29 294 4 403 -35
154 -123 296 -241 393 -59 47 -64 55 -59 82 8 48 -13 264 -36 372 -18 82 -49
179 -84 265 -6 14 20 35 134 109 78 50 141 96 141 101 0 24 -81 131 -159 208
-140 139 -281 200 -513 221 -116 11 -119 12 -185 56 -146 97 -373 190 -558
227 -72 14 -297 38 -335 34 -8 0 -59 -4 -113 -9z m428 -164 c149 -33 438 -148
418 -165 -4 -4 -28 -12 -53 -19 -25 -7 -85 -34 -135 -59 -272 -140 -405 -432
-354 -777 l12 -76 -29 -31 c-16 -16 -55 -52 -86 -79 l-56 -50 -156 148 -156
147 0 393 0 393 -217 2 -218 3 81 42 c132 68 304 122 469 147 68 10 412 -3
480 -19z m-1145 -342 l0 -98 -52 53 -53 53 50 45 c27 24 51 44 52 44 2 0 3
-44 3 -97z m-87 -212 l87 -86 0 -720 -1 -720 -108 -103 c-60 -56 -115 -102
-123 -102 -27 1 -147 175 -215 315 -90 185 -133 376 -133 595 0 216 42 408
130 590 52 107 88 164 168 268 74 97 52 101 195 -37z m2030 -87 c56 -19 146
-97 183 -160 14 -24 32 -44 39 -44 36 0 115 -311 115 -451 0 -33 -2 -59 -5
-59 -3 0 -36 15 -73 34 -37 18 -135 63 -219 99 -354 154 -417 205 -430 348
l-6 61 89 89 c49 50 102 94 119 99 37 11 125 4 188 -16z m-1270 -633 c42 -42
77 -79 77 -84 0 -9 -176 -180 -191 -185 -5 -2 -9 82 -9 189 l0 192 23 -19 c12
-10 57 -52 100 -93z m451 -17 c65 -103 175 -202 320 -287 39 -22 179 -89 311
-147 235 -104 326 -153 375 -205 l24 -25 -26 -54 c-50 -102 -170 -271 -188
-264 -4 2 -224 208 -489 458 l-480 455 57 58 c31 31 59 57 62 57 3 0 18 -21
34 -46z m226 -624 l470 -445 -42 -3 c-145 -11 -338 102 -443 261 -21 31 -43
57 -49 56 -6 0 -105 -56 -221 -123 -148 -87 -210 -128 -209 -140 6 -65 210
-295 333 -374 l64 -41 -39 -10 c-125 -32 -169 -36 -364 -36 -130 0 -227 5
-265 13 -97 21 -265 75 -265 85 0 5 23 35 52 66 32 35 67 89 93 146 69 146 78
197 84 470 l6 240 100 96 c178 170 200 189 212 186 7 -1 224 -202 483 -447z"/>
</g>
</svg>
